<?xml version="1.0" encoding="utf-8"?>
<!-- Generator: Adobe Illustrator 24.0.2, SVG Export Plug-In . SVG Version: 6.00 Build 0)  -->
<svg version="1.1" xmlns="http://www.w3.org/2000/svg" xmlns:xlink="http://www.w3.org/1999/xlink" x="0px" y="0px"
	 viewBox="0 0 150 150" style="enable-background:new 0 0 150 150;" xml:space="preserve">
<style type="text/css">
	.st0{display:none;}
	.st1{display:inline;}
	.st2{fill:#101820;}
	.st3{fill:#FFFFFF;}
	.st4{display:inline;fill:#101820;}
</style>
<g id="Capa_1" class="st0">
	<g class="st1">
		<path class="st2" d="M2.5,138.9c1.3-3.5,2.5-6.9,3.7-10.3c1-2.6,2-5.2,2.9-7.9c0.3-1,0.8-1.3,1.8-1.3c17.4,0,34.9,0,52.3,0
			c23.5,0,47,0,70.5,0c1.9,0,3.8-0.1,5.7,0c0.4,0,1.1,0.4,1.2,0.7c2.3,6.1,4.5,12.3,6.9,18.7C99.1,138.9,50.9,138.9,2.5,138.9z"/>
		<path class="st2" d="M9.7,41.7c0-2.3,0-4.3,0-6.4c7.1-2.7,14.3-5.4,21.4-8.1C45.2,22,59.3,16.7,73.4,11.4c1.2-0.4,2.1-0.4,3.3,0
			c15.8,5.9,31.6,11.8,47.4,17.7c4.6,1.7,9.3,3.5,13.9,5.2c2.2,0.8,2.3,1,2.4,3.5c0.1,3.9,0.1,3.9-3.7,3.9c-15.4,0-30.8,0-46.2,0
			c-22.2,0-44.4,0-66.5,0C19.3,41.7,14.6,41.7,9.7,41.7z"/>
		<path class="st2" d="M136.2,46.8c-0.7,2.1-1.4,3.9-2.1,5.8c-0.1,0.2-0.5,0.5-0.8,0.5c-0.4,0.1-0.8,0-1.2,0c-38.1,0-76.2,0-114.2,0
			c-1.4,0-2.1-0.4-2.4-1.7c-0.4-1.5-1-3-1.6-4.7C54.6,46.8,95.3,46.8,136.2,46.8z"/>
		<path class="st2" d="M36.3,114.5c-4.6,0-9.1,0-13.6,0c0-18.8,0-37.5,0-56.4c4.5,0,9,0,13.6,0C36.3,76.9,36.3,95.6,36.3,114.5z"/>
		<path class="st2" d="M66.6,114.5c-4.6,0-9.1,0-13.6,0c0-18.8,0-37.5,0-56.4c4.5,0,9,0,13.6,0C66.6,76.9,66.6,95.6,66.6,114.5z"/>
		<path class="st2" d="M97,114.5c-4.6,0-9.1,0-13.6,0c0-18.8,0-37.5,0-56.4c4.5,0,9,0,13.6,0C97,76.9,97,95.6,97,114.5z"/>
		<path class="st2" d="M113.7,58.1c4.6,0,9.1,0,13.7,0c0,0.7,0,1.2,0,1.7c0,15.7,0,31.4,0,47.1c0,2.1-0.1,4.2-0.1,6.3
			c0,0.8-0.3,1.3-1,1.3c-4.2,0-8.3,0-12.6,0C113.7,95.7,113.7,76.9,113.7,58.1z"/>
	</g>
</g>
<g id="Capa_2">
	<g>
		<path class="st3" d="M2.5,138.9c1.3-3.5,2.5-6.9,3.7-10.3c1-2.6,2-5.2,2.9-7.9c0.3-1,0.8-1.3,1.8-1.3c17.4,0,34.9,0,52.3,0
			c23.5,0,47,0,70.5,0c1.9,0,3.8-0.1,5.7,0c0.4,0,1.1,0.4,1.2,0.7c2.3,6.1,4.5,12.3,6.9,18.7C99.1,138.9,50.9,138.9,2.5,138.9z"/>
		<path class="st3" d="M9.7,41.7c0-2.3,0-4.3,0-6.4c7.1-2.7,14.3-5.4,21.4-8.1C45.2,22,59.3,16.7,73.4,11.4c1.2-0.4,2.1-0.4,3.3,0
			c15.8,5.9,31.6,11.8,47.4,17.7c4.6,1.7,9.3,3.5,13.9,5.2c2.2,0.8,2.3,1,2.4,3.5c0.1,3.9,0.1,3.9-3.7,3.9c-15.4,0-30.8,0-46.2,0
			c-22.2,0-44.4,0-66.5,0C19.3,41.7,14.6,41.7,9.7,41.7z"/>
		<path class="st3" d="M136.2,46.8c-0.7,2.1-1.4,3.9-2.1,5.8c-0.1,0.2-0.5,0.5-0.8,0.5c-0.4,0.1-0.8,0-1.2,0c-38.1,0-76.2,0-114.2,0
			c-1.4,0-2.1-0.4-2.4-1.7c-0.4-1.5-1-3-1.6-4.7C54.6,46.8,95.3,46.8,136.2,46.8z"/>
		<path class="st3" d="M36.3,114.5c-4.6,0-9.1,0-13.6,0c0-18.8,0-37.5,0-56.4c4.5,0,9,0,13.6,0C36.3,76.9,36.3,95.6,36.3,114.5z"/>
		<path class="st3" d="M66.6,114.5c-4.6,0-9.1,0-13.6,0c0-18.8,0-37.5,0-56.4c4.5,0,9,0,13.6,0C66.6,76.9,66.6,95.6,66.6,114.5z"/>
		<path class="st3" d="M97,114.5c-4.6,0-9.1,0-13.6,0c0-18.8,0-37.5,0-56.4c4.5,0,9,0,13.6,0C97,76.9,97,95.6,97,114.5z"/>
		<path class="st3" d="M113.7,58.1c4.6,0,9.1,0,13.7,0c0,0.7,0,1.2,0,1.7c0,15.7,0,31.4,0,47.1c0,2.1-0.1,4.2-0.1,6.3
			c0,0.8-0.3,1.3-1,1.3c-4.2,0-8.3,0-12.6,0C113.7,95.7,113.7,76.9,113.7,58.1z"/>
	</g>
</g>
</svg>
