<?xml version="1.0" encoding="utf-8"?>
<!-- Generator: Adobe Illustrator 24.0.2, SVG Export Plug-In . SVG Version: 6.00 Build 0)  -->
<svg version="1.1" xmlns="http://www.w3.org/2000/svg" xmlns:xlink="http://www.w3.org/1999/xlink" x="0px" y="0px"
	 viewBox="0 0 150 150" style="enable-background:new 0 0 150 150;" xml:space="preserve">
<style type="text/css">
	.st0{display:none;}
	.st1{display:inline;}
	.st2{fill:#101820;}
	.st3{fill:#FFFFFF;}
	.st4{display:inline;fill:#101820;}
</style>
<g id="Capa_1" class="st0">
	<g class="st1">
		<rect x="2.5" y="134.4" class="st2" width="145" height="6.2"/>
		<path class="st2" d="M42.3,109.3h22.3v21.4h33.9V9.4H8.3v121.3h33.9V109.3z M69.6,18.1H92v8.1H69.6V18.1z M69.6,33.3H92v8.1H69.6
			V33.3z M69.6,48.5H92v8.1H69.6V48.5z M69.6,63.7H92v8.1H69.6V63.7z M69.6,78.9H92v8.1H69.6V78.9z M69.6,94.1H92v8.1H69.6V94.1z
			 M69.6,109.3H92v8.1H69.6V109.3z M42.3,18.1h22.3v8.1H42.3V18.1z M42.3,33.3h22.3v8.1H42.3V33.3z M42.3,48.5h22.3v8.1H42.3V48.5z
			 M42.3,63.7h22.3v8.1H42.3V63.7z M42.3,78.9h22.3v8.1H42.3V78.9z M42.3,94.1h22.3v8.1H42.3V94.1z M37.2,117.3H14.9v-8.1h22.3
			V117.3z M37.2,102.1H14.9v-8.1h22.3V102.1z M37.2,86.9H14.9v-8.1h22.3V86.9z M37.2,71.8H14.9v-8.1h22.3V71.8z M37.2,56.6H14.9
			v-8.1h22.3V56.6z M37.2,41.4H14.9v-8.1h22.3V41.4z M37.2,26.2H14.9v-8.1h22.3V26.2z"/>
		<path class="st2" d="M134.7,35.9h-30.9v94.8h30.9V35.9z M125.8,124.9h-13.1v-16.1h13.1V124.9z M125.8,102.5h-13.1V86.4h13.1V102.5
			z M125.8,80.2h-13.1V64.1h13.1V80.2z M125.8,57.9h-13.1V41.7h13.1V57.9z"/>
	</g>
</g>
<g id="Capa_2">
	<g>
		<rect x="2.5" y="134.4" class="st3" width="145" height="6.2"/>
		<path class="st3" d="M42.3,109.3h22.3v21.4h33.9V9.4H8.3v121.3h33.9V109.3z M69.6,18.1H92v8.1H69.6V18.1z M69.6,33.3H92v8.1H69.6
			V33.3z M69.6,48.5H92v8.1H69.6V48.5z M69.6,63.7H92v8.1H69.6V63.7z M69.6,78.9H92v8.1H69.6V78.9z M69.6,94.1H92v8.1H69.6V94.1z
			 M69.6,109.3H92v8.1H69.6V109.3z M42.3,18.1h22.3v8.1H42.3V18.1z M42.3,33.3h22.3v8.1H42.3V33.3z M42.3,48.5h22.3v8.1H42.3V48.5z
			 M42.3,63.7h22.3v8.1H42.3V63.7z M42.3,78.9h22.3v8.1H42.3V78.9z M42.3,94.1h22.3v8.1H42.3V94.1z M37.2,117.3H14.9v-8.1h22.3
			V117.3z M37.2,102.1H14.9v-8.1h22.3V102.1z M37.2,86.9H14.9v-8.1h22.3V86.9z M37.2,71.8H14.9v-8.1h22.3V71.8z M37.2,56.6H14.9
			v-8.1h22.3V56.6z M37.2,41.4H14.9v-8.1h22.3V41.4z M37.2,26.2H14.9v-8.1h22.3V26.2z"/>
		<path class="st3" d="M134.7,35.9h-30.9v94.8h30.9V35.9z M125.8,124.9h-13.1v-16.1h13.1V124.9z M125.8,102.5h-13.1V86.4h13.1V102.5
			z M125.8,80.2h-13.1V64.1h13.1V80.2z M125.8,57.9h-13.1V41.7h13.1V57.9z"/>
	</g>
</g>
</svg>
