<?xml version="1.0" encoding="utf-8"?>
<!-- Generator: Adobe Illustrator 24.0.2, SVG Export Plug-In . SVG Version: 6.00 Build 0)  -->
<svg version="1.1" id="Capa_1" xmlns="http://www.w3.org/2000/svg" xmlns:xlink="http://www.w3.org/1999/xlink" x="0px" y="0px"
	 viewBox="0 0 800 550" style="enable-background:new 0 0 800 550;" xml:space="preserve">
<style type="text/css">
	.st0{fill:#D18C11;}
	.st1{fill:#E29F17;}
	.st2{fill:#F47257;}
	.st3{fill:#FFF9F0;}
	.st4{fill:#50BFA5;}
	.st5{fill:#3C8F7C;}
	.st6{fill:#FFE1A3;}
	.st7{fill:#2B2B2B;}
	.st8{fill:#FFBE2E;}
	.st9{fill:#F79C8D;}
	.st10{fill:#F48C7F;}
	.st11{fill:#F8A492;}
	.st12{fill:#F47458;}
	.st13{fill:#FFEBC7;}
	.st14{fill:#F7A491;}
</style>
<g>
	<g>
		<g>
			<g>
				<g>
					<path class="st0" d="M150.8,525.3H41.8c-4.4,0-7.9-3.6-7.9-7.9l0,0c0-4.4,3.5-7.9,7.9-7.9h108.9c4.4,0,7.9,3.6,7.9,7.9l0,0
						C158.7,521.7,155.1,525.3,150.8,525.3z"/>
					<path class="st1" d="M148.6,509.4H39.6c-4.4,0-7.9-3.6-7.9-7.9l0,0c0-4.4,3.5-7.9,7.9-7.9h108.9c4.4,0,7.9,3.6,7.9,7.9l0,0
						C156.5,505.9,152.9,509.4,148.6,509.4z"/>
					<path class="st0" d="M161.3,493.6H52.4c-4.4,0-7.9-3.6-7.9-7.9l0,0c0-4.4,3.5-7.9,7.9-7.9h108.9c4.4,0,7.9,3.6,7.9,7.9l0,0
						C169.2,490,165.7,493.6,161.3,493.6z"/>
					<path class="st0" d="M148.1,477.7H39.2c-4.4,0-7.9-3.6-7.9-7.9l0,0c0-4.4,3.5-7.9,7.9-7.9h108.9c4.4,0,7.9,3.6,7.9,7.9l0,0
						C156.1,474.1,152.5,477.7,148.1,477.7z"/>
					<path class="st1" d="M145.9,461.8H37c-4.4,0-7.9-3.6-7.9-7.9l0,0c0-4.4,3.5-7.9,7.9-7.9h108.9c4.4,0,7.9,3.6,7.9,7.9l0,0
						C153.8,458.3,150.3,461.8,145.9,461.8z"/>
					<path class="st0" d="M158.7,446H49.8c-4.4,0-7.9-3.6-7.9-7.9l0,0c0-4.4,3.5-7.9,7.9-7.9h108.9c4.4,0,7.9,3.6,7.9,7.9l0,0
						C166.6,442.4,163.1,446,158.7,446z"/>
				</g>
				<g>
					<path class="st0" d="M733.6,430.4h-135c-5.4,0-9.8-3.6-9.8-7.9l0,0c0-4.4,4.4-7.9,9.8-7.9h135c5.4,0,9.8,3.6,9.8,7.9l0,0
						C743.4,426.8,739,430.4,733.6,430.4z"/>
					<path class="st1" d="M731.4,414.5H595.3c-5.1,0-9.2-3.6-9.2-7.9l0,0c0-4.4,4.1-7.9,9.2-7.9h136.2c5.1,0,9.2,3.6,9.2,7.9l0,0
						C740.7,410.9,736.5,414.5,731.4,414.5z"/>
					<path class="st0" d="M746.7,398.6h-135c-5.4,0-9.8-3.6-9.8-7.9l0,0c0-4.4,4.4-7.9,9.8-7.9h135c5.4,0,9.8,3.6,9.8,7.9l0,0
						C756.5,395.1,752.1,398.6,746.7,398.6z"/>
				</g>
				<rect x="144.6" y="338.5" class="st2" width="434" height="45.5"/>
				<g>
					<path class="st1" d="M525,448.8c-106.5-30.4-217.1-39.6-326-27c-5.9-47.3-11.7-94.6-17.6-141.8c125.9-14.6,253.8-4,376.9,31.2
						C547.2,357.1,536.1,402.9,525,448.8z"/>
					<path class="st3" d="M203.1,394.4c-3.4-29.5-6.9-59.1-10.3-88.6c11.5-1.2,20-10.6,19-21.3c105.7-8.9,212.3-0.1,316,26.1
						c-2.2,10.4,5.2,21.1,16.4,24.2c-6.7,28.7-13.4,57.4-20.1,86.1c-10.3-2.9-20.5,3.5-22.7,13.9c-91-23-184.7-30.8-277.5-23
						C223,401.2,213.6,393.2,203.1,394.4z"/>
					<g>
						<path class="st4" d="M425,352.2c-3.4,26.7-27.3,45.1-53.6,42.7c-26.3-2.4-47.6-24.9-47.5-51.9c0.1-27,24.2-48.3,53.8-45.6
							C407.3,300.1,428.4,325.5,425,352.2z"/>
						<path class="st5" d="M369.4,386.2c0.1-2.9,0.2-5.9,0.3-8.8c-4-0.4-7.9-1.4-11.1-2.6c-2.7-1-4.2-3.9-3.4-6.6
							c0-0.1,0.1-0.2,0.1-0.3c0.8-3,4.1-4.6,7.1-3.4c3,1.2,6.5,2.1,10.1,2.3c5.3,0.3,9.1-1.4,9.3-5.1c0.2-3.5-2.8-6-9.7-8.7
							c-10.1-4-17-8.9-16.8-17.8c0.1-8.1,6.3-14.3,16.9-15.6c0.1-2.9,0.2-5.9,0.3-8.8c3.2,0.2,6.5,0.4,9.7,0.6
							c-0.1,2.7-0.2,5.4-0.3,8.1c3.6,0.4,6.5,1.1,8.9,1.9c3,1,4.6,4.1,3.7,6.8l0,0c-1,2.9-4.2,4.3-7.2,3.2c-2.3-0.8-5.1-1.5-8.5-1.8
							c-6.3-0.4-8.5,2.1-8.5,4.6c-0.1,3.1,3.2,5.2,11.3,8.7c11.3,4.7,15.5,10.3,15,18.6c-0.5,8.2-6.8,14.7-17.6,15.7
							c-0.1,3.1-0.3,6.3-0.4,9.4C375.4,386.6,372.4,386.4,369.4,386.2z"/>
						<path class="st4" d="M309.1,345.2c-25.6-0.5-51.2,0.2-76.8,1.9c-0.4-4.6-0.7-9.2-1.1-13.8c25.9-1.8,51.9-2.4,77.8-1.9
							C309.1,336,309.1,340.6,309.1,345.2z"/>
						<path class="st4" d="M513.7,372.5c-25.1-6.3-50.3-11.5-75.7-15.7c0.6-4.5,1.2-9.1,1.8-13.6c25.7,4.2,51.3,9.5,76.7,15.9
							C515.6,363.5,514.6,368,513.7,372.5z"/>
					</g>
				</g>
				<g>
					<path class="st1" d="M509.2,236.9c-85.1,58.5-157.5,134.7-213.6,224.6c-37-28.2-74-56.4-111-84.6
						c64.8-104,148.6-192.1,246.9-259.7C457.5,157.1,483.4,197,509.2,236.9z"/>
					<path class="st6" d="M278.6,439.6c-23-17.8-45.9-35.6-68.9-53.4c6-9.4,4.4-22.2-3.7-28.8c56.7-85,126.6-158.5,207-217.8
						c6.1,8.8,18.1,10.7,27,4.4c16.3,24.8,32.7,49.6,49,74.3c-8.2,5.7-9.8,17.7-3.7,26.5c-70.6,52.1-132,116.6-181.8,191.2
						C295.3,429.5,284.1,431,278.6,439.6z"/>
					<g>
						<path class="st1" d="M381.1,245c16.9,20.9,15.7,51.4-1.7,69.4c-17.4,17.9-46,18.4-65.2-0.3c-19.1-18.7-19.8-51.3-0.2-71.5
							C333.6,222.3,364.2,224,381.1,245z"/>
						<path class="st3" d="M372,309.9c-2-2.1-4-4.2-6-6.3c-2.7,2.7-5.7,4.9-8.4,6.5c-2.3,1.3-5.2,0.4-6.7-2
							c-0.1-0.1-0.1-0.2-0.2-0.3c-1.6-2.7-0.8-6.2,1.8-7.6c2.6-1.4,5.3-3.4,7.7-6c3.4-3.7,4.4-7.8,1.9-10.4c-2.4-2.5-5.9-2.1-12,1.2
							c-8.8,4.8-16.4,6.6-22.7,0.3c-5.7-5.7-6.4-14.5-1-23.3c-2-2.1-4-4.2-6.1-6.3c2.1-2.3,4.2-4.6,6.3-6.8c1.9,2,3.7,3.9,5.6,5.9
							c2.4-2.4,4.6-4.1,6.7-5.3c2.5-1.5,5.6-0.6,7,2l0,0c1.5,2.7,0.5,6.1-2,7.6c-1.9,1.1-4.1,2.7-6.3,5.1c-4.1,4.4-3.6,7.7-1.8,9.6
							c2.1,2.2,5.6,1.1,12.9-2.4c10.1-5.2,16.5-4.5,22.1,1.6c5.5,6,6.3,15.2,0.7,23.9c2.1,2.3,4.3,4.5,6.4,6.8
							C375.9,305.7,374,307.8,372,309.9z"/>
						<path class="st4" d="M307,326.6c-15.6,18.8-30.4,38.3-44.4,58.6c-3.5-2.9-6.9-5.8-10.4-8.7c14.2-20.6,29.3-40.4,45.1-59.4
							C300.4,320.3,303.7,323.4,307,326.6z"/>
						<path class="st1" d="M448.4,192.7c-19.4,14.4-38.2,29.6-56.3,45.7c-2.9-3.6-5.7-7.1-8.6-10.7c18.3-16.3,37.4-31.8,57-46.3
							C443.2,185.2,445.8,189,448.4,192.7z"/>
					</g>
				</g>
				<g>
					<path class="st1" d="M525.1,425.2c-105-6.4-210.2,9.1-310,45.5c-13.7-45.2-27.5-90.4-41.2-135.6c115.4-42.2,237-60,358.4-52.6
						C529.9,330,527.5,377.6,525.1,425.2z"/>
					<path class="st3" d="M214.1,442.8c-8.4-28.3-16.7-56.6-25.1-84.9c10.5-3.7,16.9-14.9,14.1-25.1c97.4-32.1,198.8-47,300.5-44.1
						c-0.2,10.7,8.6,19.6,19.6,20.2c-1.3,29.7-2.6,59.4-3.8,89.1c-10.2-0.5-18.6,7.9-18.8,18.7c-89.3-2.5-178.4,10.6-263.9,38.8
						C233.9,445.1,223.7,439.4,214.1,442.8z"/>
					<g>
						<path class="st1" d="M414.6,352.3c1.5,27.1-17.7,50.4-42.7,53.9c-25,3.4-48.9-14-53.6-40.6c-4.6-26.6,14.2-52.8,42.4-56.7
							C388.8,305,413.1,325.3,414.6,352.3z"/>
						<path class="st3" d="M368.4,398c-0.4-2.9-0.8-5.8-1.2-8.7c-3.8,0.5-7.6,0.4-10.8-0.1c-2.7-0.4-4.6-2.9-4.3-5.7
							c0-0.1,0-0.2,0-0.3c0.3-3.1,3-5.4,6-4.9c3,0.5,6.4,0.6,9.9,0c5.1-0.8,8.3-3.4,7.8-7.1c-0.5-3.5-3.6-5.3-10.6-6.4
							c-10.1-1.7-17.4-5-18.9-13.8c-1.3-8,3.4-15.5,13.1-19.1c-0.4-2.9-0.8-5.8-1.3-8.7c3.1-0.5,6.1-1,9.2-1.5
							c0.4,2.7,0.7,5.4,1.1,8.1c3.4-0.4,6.3-0.4,8.7-0.1c3,0.3,5,3,4.6,5.9l0,0c-0.4,3-3.2,5.2-6.2,4.8c-2.3-0.3-5-0.4-8.3,0.1
							c-6,1-7.6,3.9-7.2,6.4c0.4,3,3.9,4.4,12.1,6.1c11.4,2.2,16.3,6.7,17.3,14.9c1,8.2-3.8,15.9-13.7,19.3c0.4,3.1,0.8,6.2,1.3,9.4
							C374.1,397.1,371.2,397.6,368.4,398z"/>
						<path class="st4" d="M304.8,371c-24.1,5.2-47.9,11.5-71.6,18.8c-1.1-4.4-2.3-8.9-3.4-13.3c24-7.5,48.2-13.8,72.6-19.1
							C303.1,361.9,303.9,366.5,304.8,371z"/>
						<path class="st4" d="M501.1,352.6c-24.6-0.7-49.1-0.2-73.6,1.3c-0.2-4.6-0.5-9.2-0.7-13.8c24.8-1.6,49.7-2,74.6-1.3
							C501.3,343.4,501.2,348,501.1,352.6z"/>
					</g>
				</g>
				<rect x="144.6" y="338.5" class="st7" width="434" height="191.5"/>
				<rect x="160.6" y="347.9" width="395.1" height="14.9"/>
				<rect x="165.6" y="387.4" width="184.2" height="4.9"/>
				<g>
					<path class="st0" d="M527.6,422.3c13,18.6,8.5,44.2-10,57.3c-18.5,13-44.1,8.6-57.2-10c-13-18.6-8.5-44.2,10-57.3
						C489,399.3,514.6,403.7,527.6,422.3z"/>
					<path class="st1" d="M522.2,426.1c10.9,15.6,7.2,37.1-8.4,48.1c-15.6,10.9-37,7.2-48-8.4c-10.9-15.6-7.2-37.1,8.4-48.1
						C489.8,406.8,511.3,410.5,522.2,426.1z"/>
					<g>
						<path class="st3" d="M498,470.2l-1.5-5.6c-2.5,0.6-5.1,0.8-7.3,0.6c-1.8-0.1-3.3-1.6-3.3-3.5l0-0.2c0-2,1.7-3.7,3.7-3.5
							c2.1,0.1,4.3,0,6.6-0.6c3.3-0.9,5.3-2.8,4.6-5.1c-0.6-2.2-2.8-3.1-7.6-3.4c-6.8-0.4-11.9-2.2-13.4-7.9
							c-1.4-5.2,1.1-10.2,7.1-13.1l-1.5-5.6l5.7-1.6l1.4,5.2c2.1-0.5,4-0.7,5.5-0.7c1.9,0,3.5,1.5,3.5,3.5l0,0c0,2-1.6,3.6-3.6,3.6
							c-1.5,0-3.3,0.1-5.3,0.7c-3.8,1-4.6,3-4.1,4.6c0.5,1.9,2.9,2.6,8.4,3.1c7.6,0.6,11.3,3,12.7,8.3c1.4,5.2-1.1,10.7-7.5,13.6
							l1.6,6L498,470.2z"/>
					</g>
				</g>
				<g>
					<ellipse class="st0" cx="414.3" cy="394.5" rx="41" ry="41.1"/>
					<ellipse class="st1" cx="414.3" cy="394.5" rx="34.4" ry="34.5"/>
					<g>
						<path class="st3" d="M403.6,416.6l2-5.4c-2.4-1-4.6-2.3-6.4-3.7c-1.5-1.1-1.8-3.2-0.7-4.7l0.1-0.2c1.1-1.7,3.5-2,5.1-0.8
							c1.6,1.3,3.6,2.5,5.8,3.3c3.2,1.2,5.9,0.7,6.7-1.5c0.8-2.2-0.5-4.2-4.2-7.2c-5.3-4.3-8.5-8.6-6.5-14.2c1.8-5,6.8-7.7,13.3-6.7
							l2-5.4l5.6,2l-1.8,5c2,0.8,3.6,1.7,4.9,2.6c1.6,1.1,2,3.3,0.9,4.8l0,0c-1.1,1.6-3.4,2-5,0.9c-1.2-0.9-2.7-1.8-4.7-2.5
							c-3.7-1.3-5.5-0.2-6,1.4c-0.7,1.9,0.9,3.8,5.1,7.4c5.9,4.9,7.5,9,5.6,14.1c-1.8,5.1-7,8.1-13.9,6.9l-2.1,5.8L403.6,416.6z"/>
					</g>
				</g>
				<rect x="369.9" y="418.2" width="185.8" height="99.8"/>
				<path d="M578.7,472.2H471.3c-4.8,0-8.6,4.8-8.6,10.7v0c0,5.9,3.9,10.7,8.6,10.7h-13.9c-4.8,0-8.6,4.8-8.6,10.7l0,0
					c0,5.9,3.9,10.7,8.6,10.7h2.4c-4.8,0-8.6,4.8-8.6,10.7c0,1.5,0.3,3,0.7,4.3h126.8V472.2z"/>
				<path class="st0" d="M579.7,523.3H468.8c-4.5,0-8.1-3.6-8.1-8.1l0,0c0-4.5,3.6-8.1,8.1-8.1h110.9c4.5,0,8.1,3.6,8.1,8.1l0,0
					C587.8,519.7,584.2,523.3,579.7,523.3z"/>
				<path class="st8" d="M577.5,507.1H466.6c-4.5,0-8.1-3.6-8.1-8.1l0,0c0-4.5,3.6-8.1,8.1-8.1h110.9c4.4,0,8.1,3.6,8.1,8.1l0,0
					C585.6,503.5,581.9,507.1,577.5,507.1z"/>
				<path class="st0" d="M590.5,491H479.6c-4.5,0-8.1-3.6-8.1-8.1l0,0c0-4.5,3.6-8.1,8.1-8.1h110.9c4.4,0,8.1,3.6,8.1,8.1l0,0
					C598.6,487.4,595,491,590.5,491z"/>
				<g>
					<path class="st0" d="M700.4,525.5H573.3c-5.1,0-9.2-3.6-9.2-7.9l0,0c0-4.4,4.1-7.9,9.2-7.9h127.1c5.1,0,9.2,3.6,9.2,7.9l0,0
						C709.6,522,705.5,525.5,700.4,525.5z"/>
					<path class="st1" d="M697.8,509.7H570.7c-5.1,0-9.2-3.6-9.2-7.9l0,0c0-4.4,4.1-7.9,9.2-7.9h127.1c5.1,0,9.2,3.6,9.2,7.9l0,0
						C707,506.1,702.9,509.7,697.8,509.7z"/>
					<path class="st0" d="M712.7,493.8H585.6c-5.1,0-9.2-3.6-9.2-7.9l0,0c0-4.4,4.1-7.9,9.2-7.9h127.1c5.1,0,9.2,3.6,9.2,7.9l0,0
						C722,490.3,717.8,493.8,712.7,493.8z"/>
					<path class="st0" d="M697.3,478H570.2c-5.1,0-9.2-3.6-9.2-7.9l0,0c0-4.4,4.1-7.9,9.2-7.9h127.1c5.1,0,9.2,3.6,9.2,7.9l0,0
						C706.6,474.4,702.4,478,697.3,478z"/>
					<path class="st1" d="M694.7,462.1H567.6c-5.1,0-9.2-3.6-9.2-7.9l0,0c0-4.4,4.1-7.9,9.2-7.9h127.1c5.1,0,9.2,3.6,9.2,7.9l0,0
						C704,458.5,699.8,462.1,694.7,462.1z"/>
					<path class="st0" d="M709.7,446.2H582.5c-5.1,0-9.2-3.6-9.2-7.9l0,0c0-4.4,4.1-7.9,9.2-7.9h127.1c5.1,0,9.2,3.6,9.2,7.9l0,0
						C718.9,442.7,714.8,446.2,709.7,446.2z"/>
				</g>
			</g>
			<g>
				<g>
					<path d="M0,527.9L0,527.9c0,1.3,1.4,2.3,3.2,2.3h793.6c1.8,0,3.2-1,3.2-2.3l0,0c0-1.3-1.4-2.3-3.2-2.3H3.2
						C1.4,525.5,0,526.6,0,527.9z"/>
				</g>
			</g>
		</g>
		<g>
			<g>
				<path class="st9" d="M578.7,490.6c0,0,6.3,10.2,3.2,15.2c-3.1,5-18.8,9.3-26.4,16.4c-7.7,7.1-1.2,6.3-1.2,6.3s41,0.6,49.7-0.9
					c4.9-0.8,3.7-11.5,0.8-18.7c-2.9-7.1-7.1-27.6-7.1-27.6L578.7,490.6z"/>
				<path class="st3" d="M608.4,518.4c-0.9-3.5-2.5-12.3-3.8-12.8c-6.6-2.4-11.1,10.2-27.9,3.9c-0.5-0.2-9.1,4.9-14.4,7.1
					c-5.3,2.2-12.3,6.5-11.8,10.6c0.1,0.5,0.8,1.7,2.1,1.9c13.8,2.1,55.3-1.6,55.3-1.6C609.6,526,609.1,521.2,608.4,518.4z"/>
			</g>
			<g>
				<path class="st9" d="M701.4,504.7c0,0,9.4,7.3,8.3,13.1c-1.2,5.7-14.3,15.3-19,24.6c-4.7,9.3,1.1,6.3,1.1,6.3
					s38.6-13.9,46.2-18.3c4.3-2.5-0.5-12.1-5.7-17.8c-5.2-5.7-16.3-23.3-16.3-23.3L701.4,504.7z"/>
				<path class="st3" d="M738.9,520.3c-2-3-6.6-10.7-8-10.6c-7,0.1-6.9,13.5-24.8,13.4c-0.6,0-6.8,7.8-11,11.7
					c-4.2,3.9-9.3,10.4-7.3,14.1c0.2,0.5,1.3,1.3,2.7,1c13.6-2.9,51.2-20.9,51.2-20.9C742.7,527,740.5,522.7,738.9,520.3z"/>
			</g>
			<g>
				<path class="st10" d="M675.1,137.2c0,0-1.2-20.9,0.7-29.1c1.9-8.1,1.9-8.1,1.9-8.1s12.1-31.6,11.2-48.2
					c-1-16.6-1.2-24.1,1.3-29.6c2.6-5.5-3.9-20.3-7.5-22c-3.6-1.7-16.3,5.3-17.3,7.4c-1,2.1-0.9,3.6,1,6.7c0.4,0.6,1.4,1.9,2.3,2.8
					c0.4,0.4,1,0.6,1.2,1c2.1,3.6,3.9,7.5,4,10.2c0.1,5.9-24.2,71.9-25.2,74c-1,2.1,4.4,53.9,4.4,53.9L675.1,137.2z"/>
				<path class="st11" d="M679.7,13.8c0.3-2.9,1.4-4.4,2.5-5.3c1.1-0.8-2.7-3.8-3.7-3.5c-0.9,0.3-4.3-1.1-1-3.1c3.3-2,8.2,0.2,10,1
					c1.9,0.9,6.8,14.4,3.2,17.7C687.1,24.2,679.4,16.8,679.7,13.8z"/>
				<path class="st12" d="M678.2,8.4c0,0,0.5,7.9-0.8,8.4c-1.3,0.5-2.9-3.6-2.9-3.6s0.9,3.7-0.2,4.9c-1.1,1.2-3.6-4.2-3.6-4.2
					s1,4.6,0.2,5.2c-0.8,0.6-4.4-4.8-4.4-4.8s3.2,3.6,3.8,3.4c0.6-0.2,0.3-4.4,0.3-4.4s3,4.9,3.6,3.9c0.6-1,0.1-4.5,0.1-4.5
					s2.2,3.7,2.7,3.2C677.5,15.5,678.2,8.4,678.2,8.4z"/>
			</g>
			<path class="st13" d="M599.9,301.1c0,0-56.4,64.7-59.7,88.9c-3.3,24.3,36.3,103.7,36.3,103.7l25.8-1c0,0-8.5-64.9-15.3-78.5
				c-6.8-13.7-7.7-16.9-4.8-19.5c11.8-10.4,40.5-41.9,40.5-41.9L599.9,301.1z"/>
			<path class="st10" d="M698.2,263.9c0,0,7,31.6,9.5,34.3l16.3-25.3l-0.1-31L698.2,263.9z"/>
			<path d="M648.2,118.7l0.4,58.3l38-11.5l1.1-9l-2.2-46.5C685.5,109.9,651.9,111.2,648.2,118.7z"/>
			<path class="st3" d="M598.4,269.7c0,0-2.9,20.2-0.1,37.4c2.8,17.2,14.7,47.3,14.7,47.3s17.6,83.1,22.1,91
				c4.5,7.9,65.5,73.4,65.5,73.4s22.4-4.9,28.3-15.4c0,0-47.1-69.1-62.2-79l1.3-83.5c0,0,3.4-31.9,3.7-39.9c0.3-8,0.3-8,0.3-8
				L598.4,269.7z"/>
			<path class="st7" d="M687.7,156.4c0,0-23.5-2.1-37.7,3.7c-14.2,5.9-51.2,84.1-55.3,108.7c-4.1,24.7,78.9,35.1,78.9,35.1
				l18.2-68.1l5.6,30.9c0,0,20.7-11,27.7-17.6c0,0,0.2-44.8-2.6-53.3C719.7,187.3,701,163.7,687.7,156.4z"/>
			<path class="st9" d="M742.7,186.6c-3-0.8-8.8-1.1-11.1,0.7c-5.1,3.9-5.4,20.7-3.6,22.4c1.8,1.7,10.8,9.8,10.8,9.8
				c-0.1,1.6-18.9,33.9-21.7,40.2c-2.8,6.3-16.3,29-9.5,38.6c2.5,3.6,21.6-3.2,30.9-23.1c9.4-19.8,18.7-61.9,16.8-70.1
				C753.5,196.9,747.3,187.9,742.7,186.6z"/>
			<g>
				<g>
					<path class="st3" d="M681,88.2c0,0,9.8-7.3,14.6,4.5c0-0.1,3.6-0.2,4.1-0.1c2.1,0.6,4.2,2.7,6.1,3.8c6.8,3.9,10.2,12,10.9,19.5
						c0.9,9.1-2.6,16-8.3,22.9c-1.7,2-3.5,4-5.7,5.4c-2.7,1.6-5,0.5-7.6,1.3c-2.2,0.6-2.9,3-5.5,2.3c-3.7-1-7.8-5.4-12.3-4.5
						c-4.5,0.9-15.2-2.7-15.2-2.7c-13.7-4.6-5.8-31.1-3.7-40.5C660.4,91.2,672.5,85.4,681,88.2z"/>
					<path class="st14" d="M671.6,148l-3.1,9.7l-1.6,5.4c0,0,0.3,9.6,2.6,11.9c4,4.1,19-12.4,19-12.4l3.6-30.3L671.6,148z"/>
					<path class="st12" d="M691,142.1c-5.6,9.6-15.7,14.3-22.5,15.6l3.1-9.8l20.6-15.7L691,142.1z"/>
					<path class="st14" d="M686.6,101.7c-8.2-4.5-18.6-0.3-21.5,8.5c-1.3,3.8-2.6,8.7-3.7,14.1c-2.5,13,2.1,26.8,8,27.8
						c5.9,1,23.6-4.6,27.4-23C699.2,117.8,695.3,106.4,686.6,101.7z"/>
					<path class="st14" d="M692.3,129.8c-0.5,2.9,1,5.5,3.3,5.9c2.3,0.4,4.6-1.6,5.1-4.5c0.5-2.9-1-5.5-3.3-5.9
						C695.1,124.9,692.8,126.9,692.3,129.8z"/>
				</g>
				<path class="st3" d="M674.5,136c0,0,7.8,2.2,8.6,5c0.8,2.8,0,6.9-3.6,10.3c-3.6,3.3-11.8,1.8-14,0.1c-2.3-1.6-4.3-8.9-2.3-13.1
					C665.1,134,674.5,136,674.5,136z"/>
				<path class="st14" d="M677.3,141.8c0,0,0.1,3.2-0.9,3.8c-1,0.6-2.3,1.1-3.4,1.3c-1.9,0.3-3.7-0.5-4.8-1.9
					c-0.1-0.1-0.2-0.3-0.3-0.4c-0.9-1.5-1.1-4.3-1.1-4.3s3.2-0.9,5.1-0.7C673.7,139.7,677.3,141.8,677.3,141.8z"/>
			</g>
		</g>
		<g>
			<path class="st3" d="M237.5,160.2c0,0,11.6-34.4-5.5-42.2c-13.2-5.9-17.7,0.4-17.7,0.4s-20.5-10.8-24.2,11.8
				c0,0-14.2,2.4-15.5,15.1c-1.2,12.7,6.4,17.2,6.4,17.2s-6.6,7.4-3.3,16.7c3.3,9.3,17.5,15.2,25.1,8.6c7.6-6.6,8.1-5.6,14.7-6.6
				C224.2,180.2,237.5,160.2,237.5,160.2z"/>
			<path class="st9" d="M346.6,131.8c4.5,2.8,10.3,8.2,8.1,8.2c-2.2,0.1-11.7-6.7-13-6.6c-1.3,0,11.8,8,10.4,10.3
				c-1.4,2.3-14.8-9.2-15.5-8.5c-0.7,0.7,11.9,9.4,9.4,11c-2.4,1.6-13.3-9.8-13.9-9.2c-0.6,0.6,7.3,8.8,5.1,10
				c-2.2,1.2-7.6-5.6-8.6-6.5c-1-0.9-7.4-3.4-11.8-3.7c-4.4-0.3-27.9,27.3-34.7,30.3c-6.9,3.1-10.1,5.9-10.1,5.9l-35.3,36.8
				l-15.4-24.2l17.9-14.4c0,0,14.4-15.2,16.2-16.6c1.8-1.5,52.3-26.2,54.8-28.8c2.5-2.6,3.8-6.1,3.7-8.4c-0.1-2.3,0.2-9.4,3.1-8.9
				c2.8,0.5,0.7,5.5,2.4,8.2C324.9,125.2,342.1,129,346.6,131.8z"/>
			<path class="st9" d="M44.7,132.8c-4.3,3-9.9,8.7-7.7,8.7c2.2-0.1,11.3-7.3,12.6-7.3c1.3,0-11.4,8.6-9.8,10.9
				c1.6,2.2,14.3-10,15-9.3c0.7,0.7-11.3,10-8.8,11.5c2.5,1.4,12.8-10.5,13.4-9.9c0.6,0.6-6.8,9.2-4.5,10.2c2.3,1.1,7.3-6,8.2-6.9
				c0.9-1,7.2-3.8,11.6-4.3c4.4-0.5,29.3,25.7,36.3,28.4c7,2.7,10.4,5.3,10.4,5.3l37.3,34.8l14-25l-18.7-13.4
				c0,0-15.2-14.4-17.1-15.7c-1.9-1.4-53.7-23.3-56.3-25.8c-2.6-2.5-4.1-5.9-4.2-8.2c-0.1-2.3-0.7-9.3-3.5-8.7
				c-2.8,0.6-0.4,5.6-1.9,8.3C66,125,49.1,129.8,44.7,132.8z"/>
			<path class="st10" d="M37.5,354.5c0.6-3.4,3-8.9,6.4-8.2c4.4,0.9,10.2,2.7,14.6,6.9c8,7.6,44.2,14.8,48.3,18.7l14-35.3l35.4,21.7
				c0,0-33.4,49.7-40.5,49.9c-7.2,0.2-61.4-36.3-65.6-36.2c-4.2,0.1-8,7.4-10,12.6c-1.9,5.1-6.7,8.2-9.4,6.9
				C28.9,390.5,35.3,367.1,37.5,354.5z"/>
			<path class="st14" d="M215,397.2c0.4,13.7-0.5,17.6-0.5,17.6s-2,79.8-1.8,88.1c0.2,8.3,26.4,18.7,28.7,20.9
				c2.3,2.2-10.6,6.4-22.4,4.4c-11.8-2-17.9-2.6-21.3-2.5c-3.4,0.1-5-4.8-2.3-14.7c2.8-9.9-14.5-67.4-11.7-93.9
				c0.6-5.7,2.6-11.1,1.7-15.9c-3.4-17.3-14.3-27.8-14.3-27.8l34.6-7.8C205.8,365.7,214.6,383.5,215,397.2z"/>
			<path class="st0" d="M162.4,167.8l-9.9,37.7c0,0,12.6,7.3,14.6,18.6c2.1,11.3-4.7,21.1-18.2,29.4c-13.4,8.2-31.8,16.6-41,49.5
				c-3,10.7,3.3,33.8-0.7,41.9c-8.1,16.8-20.6,9.4-20.6,9.4s33.2,51,59.1,48.6c26-2.5,32.7-7.7,46.3-12.3
				c13.5-4.7,24.5-0.9,24.5-0.9s-4.1-35.3-11.1-55.8c-3.1-8.9-2.3-18.7,2.1-27.1c2.1-3.9,4-8.3,5.3-12.4c2-6.9,7.2-12.3,13.8-14.9
				c5.9-2.4,11.5-6.1,11.4-11.9c-0.3-11.9-2.2-45.3,0-55.4c2.3-10.2,20.8-15.7,20.8-15.7s-7.7-20.5-19.9-25.3
				c0,0-24.3,13.5-30.1,16.2c-5.7,2.7-13.1,1.9-23.6-2.9C174.8,179.6,162.4,167.8,162.4,167.8z"/>
			<path class="st14" d="M224.4,173.9c0,0-7.6,21.3-2.8,30.6c2.7,5.2-22.9-14.4-22.9-14.4l8.4-23.8L224.4,173.9z"/>
			<path class="st12" d="M205.8,170.3c2.6,5,6.5,9.4,12,12.1c1.4,0.7,2.7,1.2,3.9,1.5c1.3-5.6,2.8-9.9,2.8-9.9l-17.2-7.7
				L205.8,170.3z"/>
			<path class="st14" d="M212.4,126.5c0,0-7.6,2.4-11.8,9.8c-4.2,7.5-2.7,32.3,14,40.6c16.7,8.3,24.8-10.3,23.8-23.7
				C237.4,139.8,232.9,122.3,212.4,126.5z"/>
			<path class="st14" d="M204.2,156.3c1.2,3.5,0.2,6.9-2.3,7.7c-2.4,0.8-5.4-1.4-6.6-4.9c-1.2-3.5-0.2-6.9,2.3-7.7
				C200.1,150.7,203,152.9,204.2,156.3z"/>
			<path class="st3" d="M216.7,122.7c2.9,1.9,0.5,10.4-5.3,18.8c-5.8,8.5-12.7,13.7-15.6,11.8c-2.9-1.9-0.5-10.4,5.3-18.8
				C206.9,126,213.8,120.7,216.7,122.7z"/>
			<path class="st3" d="M219.1,528.3c-11.8-2-17.9-2.6-21.3-2.5c-3.4,0.1-5-4.8-2.3-14.7c5.1,4.8,25.8,5.6,32.8,5.8
				c6.2,3.4,12.1,6,13.2,7C243.8,526.1,230.9,530.2,219.1,528.3z"/>
			<path class="st3" d="M37.5,354.5c0.6-3.4,3-8.9,6.4-8.2c2.4,0.5,5.2,1.2,8,2.5c-2.4,4.4-8.2,15.3-10,21.9
				c-2.3,8.4,0.4,6.8-0.3,10.5l0,0c-0.5,1.2-1,2.3-1.4,3.3c-1.9,5.1-6.7,8.2-9.4,6.9C28.9,390.5,35.3,367.1,37.5,354.5z"/>
		</g>
	</g>
</g>
</svg>
