<?xml version="1.0" encoding="utf-8"?>
<!-- Generator: Adobe Illustrator 24.0.2, SVG Export Plug-In . SVG Version: 6.00 Build 0)  -->
<svg version="1.1" id="Capa_3" xmlns="http://www.w3.org/2000/svg" xmlns:xlink="http://www.w3.org/1999/xlink" x="0px" y="0px"
	 viewBox="0 0 200 200" style="enable-background:new 0 0 200 200;" xml:space="preserve">
<style type="text/css">
	.st0{fill:#101820;}
	.st1{fill:#E2A834;}
	.st2{fill:#FFFFFF;}
	.st3{opacity:0.25;fill:none;stroke:#FFFFFF;stroke-width:4;stroke-miterlimit:10;}
	.st4{opacity:0.25;fill:#FFFFFF;}
	.st5{fill:url(#SVGID_1_);}
</style>
<g>
	<g>
		<g>
			<g>
				<polygon class="st0" points="199,100 188.7,109.4 196.9,120.7 184.9,127.7 190.5,140.5 177.3,144.9 180.1,158.5 166.3,160 
					166.2,174 152.4,172.6 149.5,186.2 136.3,182 130.6,194.7 118.6,187.8 110.3,199 100,189.7 89.7,199 81.4,187.8 69.4,194.7 
					63.7,182 50.5,186.2 47.6,172.6 33.8,174 33.7,160 19.9,158.5 22.7,144.8 9.5,140.5 15.1,127.7 3.1,120.7 11.3,109.4 1,100 
					11.3,90.6 3.1,79.3 15.1,72.3 9.5,59.5 22.7,55.1 19.9,41.5 33.7,40 33.8,26 47.6,27.4 50.5,13.8 63.7,18 69.4,5.3 81.4,12.2 
					89.7,1 100,10.3 110.3,1 118.6,12.2 130.6,5.3 136.3,18 149.5,13.8 152.4,27.4 166.2,26 166.3,40 180.1,41.5 177.3,55.2 
					190.5,59.5 184.9,72.3 196.9,79.3 188.7,90.6 				"/>
			</g>
		</g>
		<g>
			<g>
				<path class="st1" d="M36.5,79.2L31.8,80v-5.1l10.8-1.6v29.3h-6.1V79.2z"/>
				<path class="st1" d="M49.9,99.9c-2-2.6-3.1-6.4-3.1-11.4c0-5,1-8.8,3.1-11.4c2-2.6,5.4-3.9,10-3.9c4.6,0,7.9,1.3,10,3.9
					c2,2.6,3.1,6.4,3.1,11.4c0,5-1,8.8-3.1,11.4c-2,2.6-5.4,3.9-10,3.9C55.2,103.8,51.9,102.5,49.9,99.9z M65.2,96.1
					c1-1.7,1.6-4.2,1.6-7.6c0-3.4-0.5-5.9-1.6-7.6c-1-1.7-2.8-2.5-5.3-2.5c-2.5,0-4.3,0.8-5.3,2.5c-1,1.7-1.6,4.2-1.6,7.6
					c0,3.4,0.5,5.9,1.6,7.6c1,1.7,2.8,2.5,5.3,2.5C62.4,98.6,64.1,97.8,65.2,96.1z"/>
				<path class="st1" d="M74.7,99h5.2l-2.2,9h-4.4L74.7,99z"/>
				<path class="st1" d="M86.3,99.9c-2-2.6-3.1-6.4-3.1-11.4c0-5,1-8.8,3.1-11.4c2-2.6,5.4-3.9,10-3.9s7.9,1.3,10,3.9
					c2,2.6,3.1,6.4,3.1,11.4c0,5-1,8.8-3.1,11.4c-2,2.6-5.4,3.9-10,3.9S88.3,102.5,86.3,99.9z M101.6,96.1c1-1.7,1.6-4.2,1.6-7.6
					c0-3.4-0.5-5.9-1.6-7.6c-1-1.7-2.8-2.5-5.3-2.5S92,79.3,90.9,81c-1,1.7-1.6,4.2-1.6,7.6c0,3.4,0.5,5.9,1.6,7.6
					c1,1.7,2.8,2.5,5.3,2.5S100.6,97.8,101.6,96.1z"/>
				<path class="st1" d="M115.7,99.9c-2-2.6-3.1-6.4-3.1-11.4c0-5,1-8.8,3.1-11.4c2-2.6,5.4-3.9,10-3.9c4.6,0,7.9,1.3,10,3.9
					c2,2.6,3.1,6.4,3.1,11.4c0,5-1,8.8-3.1,11.4c-2,2.6-5.4,3.9-10,3.9C121.1,103.8,117.8,102.5,115.7,99.9z M131,96.1
					c1-1.7,1.6-4.2,1.6-7.6c0-3.4-0.5-5.9-1.6-7.6c-1-1.7-2.8-2.5-5.3-2.5c-2.5,0-4.3,0.8-5.3,2.5c-1,1.7-1.6,4.2-1.6,7.6
					c0,3.4,0.5,5.9,1.6,7.6c1,1.7,2.8,2.5,5.3,2.5C128.2,98.6,130,97.8,131,96.1z"/>
				<path class="st1" d="M145.2,99.9c-2-2.6-3.1-6.4-3.1-11.4c0-5,1-8.8,3.1-11.4c2-2.6,5.4-3.9,10-3.9c4.6,0,7.9,1.3,10,3.9
					c2,2.6,3.1,6.4,3.1,11.4c0,5-1,8.8-3.1,11.4c-2,2.6-5.4,3.9-10,3.9C150.5,103.8,147.2,102.5,145.2,99.9z M160.5,96.1
					c1-1.7,1.6-4.2,1.6-7.6c0-3.4-0.5-5.9-1.6-7.6c-1-1.7-2.8-2.5-5.3-2.5c-2.5,0-4.3,0.8-5.3,2.5c-1,1.7-1.6,4.2-1.6,7.6
					c0,3.4,0.5,5.9,1.6,7.6c1,1.7,2.8,2.5,5.3,2.5C157.6,98.6,159.4,97.8,160.5,96.1z"/>
			</g>
		</g>
		<g>
			<path class="st2" d="M55,120.2h-4.9v-2h12.5v2h-4.9v13.4H55V120.2z"/>
			<path class="st2" d="M65.9,118.1h2.6v15.5h-2.6V118.1z"/>
			<path class="st2" d="M72.7,118.1h2.7l4.9,10l4.9-10h2.7v15.5h-2.6v-11.2l-4.2,8.5h-1.6l-4.2-8.5v11.2h-2.6V118.1z"/>
			<path class="st2" d="M92.1,118.1h7.5c1.5,0,2.6,0.4,3.4,1.1s1.1,1.7,1.1,3.1c0,0.8-0.2,1.5-0.5,2.1s-0.8,1-1.4,1.3
				c0.8,0.2,1.4,0.6,1.8,1.2c0.4,0.6,0.6,1.3,0.6,2.3c0,1.5-0.4,2.6-1.2,3.3s-2,1.1-3.6,1.1h-7.8V118.1z M99.2,124.7
				c1.6,0,2.4-0.8,2.4-2.3c0-0.8-0.2-1.4-0.6-1.8c-0.4-0.4-1.1-0.6-2.1-0.6h-4.2v4.6H99.2z M99.4,131.7c0.9,0,1.6-0.2,2.1-0.6
				c0.4-0.4,0.6-1.1,0.6-2c0-0.8-0.2-1.4-0.7-1.8c-0.4-0.4-1.2-0.6-2.3-0.6h-4.4v5H99.4z"/>
			<path class="st2" d="M108.4,118.1h7.1c1.7,0,2.9,0.4,3.7,1.3c0.8,0.9,1.2,2.1,1.2,3.6c0,1.1-0.3,2-0.8,2.8s-1.3,1.3-2.3,1.6
				c0.3,0.2,0.5,0.4,0.6,0.6c0.2,0.2,0.3,0.6,0.5,1l1.9,4.5h-2.7l-1.9-4.3c-0.2-0.4-0.4-0.7-0.7-0.9s-0.7-0.3-1.2-0.3H111v5.5h-2.6
				V118.1z M114.8,126c2,0,3-1,3-2.9c0-1.9-0.9-2.9-2.8-2.9h-4v5.8H114.8z"/>
			<path class="st2" d="M124.3,118.1H135v2h-8.2v4.7h7.3v2h-7.3v4.7h8.2v2h-10.8V118.1z"/>
			<path class="st2" d="M138.5,133v-2.3c1.5,0.6,3,0.9,4.6,0.9c1.3,0,2.2-0.2,2.8-0.5c0.6-0.3,0.9-0.9,0.9-1.7
				c0-0.5-0.1-0.9-0.4-1.3c-0.2-0.3-0.7-0.6-1.2-0.8c-0.6-0.2-1.4-0.5-2.5-0.8c-1.7-0.4-2.8-1-3.5-1.6c-0.7-0.7-1-1.6-1-2.7
				c0-1.4,0.5-2.4,1.5-3.2s2.5-1.1,4.4-1.1c0.8,0,1.7,0.1,2.5,0.2c0.8,0.1,1.4,0.3,1.9,0.4v2.3c-1.2-0.5-2.6-0.7-4-0.7
				c-1.2,0-2.1,0.2-2.7,0.5c-0.6,0.3-0.9,0.9-0.9,1.6c0,0.5,0.1,0.8,0.3,1.1c0.2,0.3,0.6,0.5,1.1,0.7c0.5,0.2,1.3,0.5,2.3,0.7
				c1.8,0.5,3.1,1.1,3.8,1.8c0.7,0.7,1.1,1.7,1.1,2.9c0,1.4-0.5,2.4-1.5,3.2s-2.5,1.2-4.5,1.2C141.3,133.8,139.7,133.6,138.5,133z"
				/>
		</g>
	</g>
	<circle class="st3" cx="100" cy="100" r="75"/>
</g>
</svg>
