<?xml version="1.0" encoding="utf-8"?>
<!-- Generator: Adobe Illustrator 24.0.2, SVG Export Plug-In . SVG Version: 6.00 Build 0)  -->
<svg version="1.1" id="Capa_3" xmlns="http://www.w3.org/2000/svg" xmlns:xlink="http://www.w3.org/1999/xlink" x="0px" y="0px"
	 viewBox="0 0 200 200" style="enable-background:new 0 0 200 200;" xml:space="preserve">
<style type="text/css">
	.st0{fill:#101820;}
	.st1{fill:#E2A834;}
	.st2{fill:#FFFFFF;}
	.st3{opacity:0.25;fill:none;stroke:#FFFFFF;stroke-width:4;stroke-miterlimit:10;}
	.st4{opacity:0.25;fill:#FFFFFF;}
	.st5{fill:url(#SVGID_1_);}
</style>
<g>
	<g>
		<g>
			<g>
				<polygon class="st0" points="199,100 188.7,109.4 196.9,120.7 184.9,127.7 190.5,140.5 177.3,144.9 180.1,158.5 166.3,160 
					166.2,174 152.4,172.6 149.5,186.2 136.3,182 130.6,194.7 118.6,187.8 110.3,199 100,189.7 89.7,199 81.4,187.8 69.4,194.7 
					63.7,182 50.5,186.2 47.6,172.6 33.8,174 33.7,160 19.9,158.5 22.7,144.8 9.5,140.5 15.1,127.7 3.1,120.7 11.3,109.4 1,100 
					11.3,90.6 3.1,79.3 15.1,72.3 9.5,59.5 22.7,55.1 19.9,41.5 33.7,40 33.8,26 47.6,27.4 50.5,13.8 63.7,18 69.4,5.3 81.4,12.2 
					89.7,1 100,10.3 110.3,1 118.6,12.2 130.6,5.3 136.3,18 149.5,13.8 152.4,27.4 166.2,26 166.3,40 180.1,41.5 177.3,55.2 
					190.5,59.5 184.9,72.3 196.9,79.3 188.7,90.6 				"/>
			</g>
		</g>
		<g>
			<g>
				<path class="st1" d="M57.2,75.1l-7.3,1.2v-7.9l16.8-2.5v45.8h-9.5V75.1z"/>
				<path class="st1" d="M79.5,111.8c-2.5-0.4-4.5-0.9-6.1-1.6V102c1.6,0.7,3.5,1.2,5.7,1.6s4.2,0.6,6.1,0.6c3.3,0,5.7-0.5,7.2-1.6
					c1.5-1,2.3-2.8,2.3-5.2c0-2.3-0.6-3.9-1.7-4.9c-1.1-1-3.2-1.5-6.2-1.5H73.2v-5.3l1.2-19.2h26.8l-0.7,7.3H82.4l-0.6,9.9h6.8
					c5.4,0,9.3,1.2,11.8,3.5c2.5,2.3,3.8,5.8,3.8,10.5c0,4.5-1.5,8.1-4.5,10.7c-3,2.6-7.4,3.9-13.2,3.9
					C84.3,112.3,82,112.1,79.5,111.8z"/>
				<path class="st1" d="M114.2,107.4c-3.2-4-4.8-9.9-4.8-17.8c0-7.8,1.6-13.8,4.8-17.8c3.2-4,8.4-6,15.6-6c7.2,0,12.4,2,15.6,6
					c3.2,4,4.8,9.9,4.8,17.8c0,7.8-1.6,13.8-4.8,17.8c-3.2,4-8.4,6-15.6,6C122.6,113.4,117.4,111.4,114.2,107.4z M138.2,101.4
					c1.6-2.6,2.4-6.5,2.4-11.8c0-5.3-0.8-9.2-2.4-11.8c-1.6-2.6-4.4-3.9-8.3-3.9s-6.7,1.3-8.3,3.9c-1.6,2.6-2.5,6.5-2.5,11.8
					c0,5.3,0.8,9.2,2.5,11.8c1.6,2.6,4.4,3.9,8.3,3.9S136.5,104,138.2,101.4z"/>
			</g>
		</g>
		<g>
			<path class="st2" d="M55,129.2h-4.9v-2h12.5v2h-4.9v13.4H55V129.2z"/>
			<path class="st2" d="M65.9,127.1h2.6v15.5h-2.6V127.1z"/>
			<path class="st2" d="M72.7,127.1h2.7l4.9,10l4.9-10h2.7v15.5h-2.6v-11.2l-4.2,8.5h-1.6l-4.2-8.5v11.2h-2.6V127.1z"/>
			<path class="st2" d="M92.1,127.1h7.5c1.5,0,2.6,0.4,3.4,1.1s1.1,1.7,1.1,3.1c0,0.8-0.2,1.5-0.5,2.1s-0.8,1-1.4,1.3
				c0.8,0.2,1.4,0.6,1.8,1.2c0.4,0.6,0.6,1.3,0.6,2.3c0,1.5-0.4,2.6-1.2,3.3s-2,1.1-3.6,1.1h-7.8V127.1z M99.2,133.7
				c1.6,0,2.4-0.8,2.4-2.3c0-0.8-0.2-1.4-0.6-1.8c-0.4-0.4-1.1-0.6-2.1-0.6h-4.2v4.6H99.2z M99.4,140.7c0.9,0,1.6-0.2,2.1-0.6
				c0.4-0.4,0.6-1.1,0.6-2c0-0.8-0.2-1.4-0.7-1.8c-0.4-0.4-1.2-0.6-2.3-0.6h-4.4v5H99.4z"/>
			<path class="st2" d="M108.4,127.1h7.1c1.7,0,2.9,0.4,3.7,1.3c0.8,0.9,1.2,2.1,1.2,3.6c0,1.1-0.3,2-0.8,2.8s-1.3,1.3-2.3,1.6
				c0.3,0.2,0.5,0.4,0.6,0.6c0.2,0.2,0.3,0.6,0.5,1l1.9,4.5h-2.7l-1.9-4.3c-0.2-0.4-0.4-0.7-0.7-0.9s-0.7-0.3-1.2-0.3H111v5.5h-2.6
				V127.1z M114.8,135c2,0,3-1,3-2.9c0-1.9-0.9-2.9-2.8-2.9h-4v5.8H114.8z"/>
			<path class="st2" d="M124.3,127.1H135v2h-8.2v4.7h7.3v2h-7.3v4.7h8.2v2h-10.8V127.1z"/>
			<path class="st2" d="M138.5,142v-2.3c1.5,0.6,3,0.9,4.6,0.9c1.3,0,2.2-0.2,2.8-0.5c0.6-0.3,0.9-0.9,0.9-1.7
				c0-0.5-0.1-0.9-0.4-1.3c-0.2-0.3-0.7-0.6-1.2-0.8c-0.6-0.2-1.4-0.5-2.5-0.8c-1.7-0.4-2.8-1-3.5-1.6c-0.7-0.7-1-1.6-1-2.7
				c0-1.4,0.5-2.4,1.5-3.2s2.5-1.1,4.4-1.1c0.8,0,1.7,0.1,2.5,0.2c0.8,0.1,1.4,0.3,1.9,0.4v2.3c-1.2-0.5-2.6-0.7-4-0.7
				c-1.2,0-2.1,0.2-2.7,0.5c-0.6,0.3-0.9,0.9-0.9,1.6c0,0.5,0.1,0.8,0.3,1.1c0.2,0.3,0.6,0.5,1.1,0.7c0.5,0.2,1.3,0.5,2.3,0.7
				c1.8,0.5,3.1,1.1,3.8,1.8c0.7,0.7,1.1,1.7,1.1,2.9c0,1.4-0.5,2.4-1.5,3.2s-2.5,1.2-4.5,1.2C141.3,142.8,139.7,142.6,138.5,142z"
				/>
		</g>
	</g>
	<circle class="st3" cx="100" cy="100" r="75"/>
</g>
</svg>
