<?xml version="1.0" encoding="utf-8"?>
<!-- Generator: Adobe Illustrator 24.0.2, SVG Export Plug-In . SVG Version: 6.00 Build 0)  -->
<svg version="1.1" xmlns="http://www.w3.org/2000/svg" xmlns:xlink="http://www.w3.org/1999/xlink" x="0px" y="0px"
	 viewBox="0 0 150 150" style="enable-background:new 0 0 150 150;" xml:space="preserve">
<style type="text/css">
	.st0{fill:#101820;}
	.st1{display:none;}
	.st2{display:inline;}
	.st3{fill:#FFFFFF;}
	.st4{display:inline;fill:#FFFFFF;}
</style>
<g id="Capa_1">
	<g>
		<path class="st0" d="M2.5,63.9c11.9,0,23.7,0,35.6,0c0.8,0,1.7,0,2.6,0c0,17.5,0,48.8,0,65.7c-1.2,0.9-2.3,1.5-3.2,2.4
			c-3.2,3.1-6.3,6.2-9.4,9.4c-0.8,0.8-1.5,1.1-2.6,1.1c-7,0-14,0-21,0c-0.7,0-1.4,0.1-2,0.1C2.5,121,2.5,85.4,2.5,63.9z M24.6,74.1
			c0,3.8,0,7.5,0,11.2c0,0.3,0.4,0.8,0.7,0.8c2.4,0.1,4.9,0,7.3,0c0-4.2,0-8.1,0-12C30,74.1,27.4,74.1,24.6,74.1z M32.6,106.2
			c0-4.1,0-8,0-11.9c-2.7,0-5.3,0-7.9,0c0,4,0,7.9,0,11.9C27.5,106.2,30,106.2,32.6,106.2z M18.5,74.1c-2.7,0-5.2,0-7.8,0
			c0,4,0,8,0,11.9c2.7,0,5.2,0,7.8,0C18.5,82,18.5,78.1,18.5,74.1z M18.5,94.2c-2.7,0-5.2,0-7.8,0c0,4,0,8,0,11.9c2.7,0,5.2,0,7.8,0
			C18.5,102.1,18.5,98.3,18.5,94.2z M18.5,114.4c-2.8,0-5.4,0-7.9,0c0,4,0,7.9,0,11.8c2.7,0,5.3,0,7.9,0
			C18.5,122.2,18.5,118.3,18.5,114.4z M32.6,126.2c0-4.1,0-7.9,0-11.9c-2.7,0-5.2,0-7.8,0c0,4,0,7.9,0,11.9
			C27.4,126.2,29.9,126.2,32.6,126.2z"/>
		<path class="st0" d="M99.2,25.6c-4.8-1.9-9.3-1.1-13.8-0.3c-2.8,0.5-5.5,0.5-8.4-0.8c0,2.1-0.1,3.9,0.1,5.7c0,0.4,0.6,0.9,1.1,1.2
			c12.2,6.9,24.4,13.8,36.6,20.7c2.1,1.2,3,2.8,2.5,4.7c-0.5,2-2.1,3-4.6,3.1c-2.4,0-4.8,0-7.4,0c0,18.8,0,51.5,0,70.3
			c-4.1,0-8,0-12.1,0c0-16,0-46,0-62.1c-4.1,0-8.1,0-12.2,0c0,16,0,46,0,62.1c-4.1,0-8,0-12,0c0-16.1,0-46.1,0-62.2
			c-4.1,0-8,0-12.1,0c0,16.1,0,46.1,0,62.2c-4.1,0-8,0-12.1,0c0-18.7,0-51.4,0-70.3c-2.3,0-4.4,0-6.5,0c-3.3,0-4.8-0.8-5.5-2.9
			c-0.6-2.1,0.3-3.7,3.1-5.3C47.8,45,59.6,38.4,71.4,31.8c1.2-0.7,1.7-1.3,1.7-2.8c-0.1-6.3-0.1-12.5,0-18.8c0-0.8,0.4-1.9,1-2.4
			c1-0.9,2.7-0.1,2.8,1.3c0.1,1.3,0.9,1.9,1.8,1.9c2.6,0.1,5.3,0.2,7.9-0.1c3.8-0.5,7.6-1.2,11.3,0.2c0.5,0.2,1.1,0.8,1.1,1.2
			C99.3,16.6,99.2,20.9,99.2,25.6z"/>
		<path class="st0" d="M147.5,142.5c-4.8,0-9.4,0-14.1,0c-2.8,0-5.7-0.1-8.5,0c-1.3,0-2.2-0.3-3-1.2c-3.2-3.3-6.4-6.5-9.7-9.7
			c-0.7-0.7-1.6-1.1-2.7-1.8c0-16.9,0-48.3,0-65.8c12.7,0,25.4,0,38.1,0C147.5,85.5,147.5,120.8,147.5,142.5z M125.3,86
			c0-4,0-7.9,0-11.9c-2.7,0-5.3,0-7.9,0c0,4,0,7.9,0,11.9C120.1,86,122.7,86,125.3,86z M125.4,94.3c-2.8,0-5.4,0-7.9,0
			c0,4,0,7.9,0,11.8c2.7,0,5.3,0,7.9,0C125.4,102.1,125.4,98.2,125.4,94.3z M139.4,86c0-4.1,0-8,0-11.9c-2.7,0-5.2,0-7.8,0
			c0,4,0,7.9,0,11.9C134.2,86,136.7,86,139.4,86z M139.4,106.1c0-4.1,0-7.9,0-11.9c-2.7,0-5.2,0-7.8,0c0,4,0,7.9,0,11.9
			C134.2,106.1,136.7,106.1,139.4,106.1z M125.4,114.4c-2.8,0-5.4,0-7.9,0c0,4,0,7.9,0,11.8c2.7,0,5.3,0,7.9,0
			C125.4,122.2,125.4,118.3,125.4,114.4z M139.4,126.2c0-4.1,0-7.9,0-11.9c-2.7,0-5.2,0-7.8,0c0,4,0,7.9,0,11.9
			C134.2,126.2,136.7,126.2,139.4,126.2z"/>
		<path class="st0" d="M32.8,142.3c2.6-2.6,5-5.1,7.5-7.4c0.4-0.3,1-0.5,1.5-0.5c22.1,0,44.2,0,66.4,0c0.5,0,1.2,0.2,1.5,0.5
			c2.5,2.4,4.9,4.8,7.5,7.4C89,142.3,61.1,142.3,32.8,142.3z"/>
	</g>
</g>
<g id="Capa_2" class="st1">
	<g class="st2">
		<path class="st3" d="M2.5,63.9c11.9,0,23.7,0,35.6,0c0.8,0,1.7,0,2.6,0c0,17.5,0,48.8,0,65.7c-1.2,0.9-2.3,1.5-3.2,2.4
			c-3.2,3.1-6.3,6.2-9.4,9.4c-0.8,0.8-1.5,1.1-2.6,1.1c-7,0-14,0-21,0c-0.7,0-1.4,0.1-2,0.1C2.5,121,2.5,85.4,2.5,63.9z M24.6,74.1
			c0,3.8,0,7.5,0,11.2c0,0.3,0.4,0.8,0.7,0.8c2.4,0.1,4.9,0,7.3,0c0-4.2,0-8.1,0-12C30,74.1,27.4,74.1,24.6,74.1z M32.6,106.2
			c0-4.1,0-8,0-11.9c-2.7,0-5.3,0-7.9,0c0,4,0,7.9,0,11.9C27.5,106.2,30,106.2,32.6,106.2z M18.5,74.1c-2.7,0-5.2,0-7.8,0
			c0,4,0,8,0,11.9c2.7,0,5.2,0,7.8,0C18.5,82,18.5,78.1,18.5,74.1z M18.5,94.2c-2.7,0-5.2,0-7.8,0c0,4,0,8,0,11.9c2.7,0,5.2,0,7.8,0
			C18.5,102.1,18.5,98.3,18.5,94.2z M18.5,114.4c-2.8,0-5.4,0-7.9,0c0,4,0,7.9,0,11.8c2.7,0,5.3,0,7.9,0
			C18.5,122.2,18.5,118.3,18.5,114.4z M32.6,126.2c0-4.1,0-7.9,0-11.9c-2.7,0-5.2,0-7.8,0c0,4,0,7.9,0,11.9
			C27.4,126.2,29.9,126.2,32.6,126.2z"/>
		<path class="st3" d="M99.2,25.6c-4.8-1.9-9.3-1.1-13.8-0.3c-2.8,0.5-5.5,0.5-8.4-0.8c0,2.1-0.1,3.9,0.1,5.7c0,0.4,0.6,0.9,1.1,1.2
			c12.2,6.9,24.4,13.8,36.6,20.7c2.1,1.2,3,2.8,2.5,4.7c-0.5,2-2.1,3-4.6,3.1c-2.4,0-4.8,0-7.4,0c0,18.8,0,51.5,0,70.3
			c-4.1,0-8,0-12.1,0c0-16,0-46,0-62.1c-4.1,0-8.1,0-12.2,0c0,16,0,46,0,62.1c-4.1,0-8,0-12,0c0-16.1,0-46.1,0-62.2
			c-4.1,0-8,0-12.1,0c0,16.1,0,46.1,0,62.2c-4.1,0-8,0-12.1,0c0-18.7,0-51.4,0-70.3c-2.3,0-4.4,0-6.5,0c-3.3,0-4.8-0.8-5.5-2.9
			c-0.6-2.1,0.3-3.7,3.1-5.3C47.8,45,59.6,38.4,71.4,31.8c1.2-0.7,1.7-1.3,1.7-2.8c-0.1-6.3-0.1-12.5,0-18.8c0-0.8,0.4-1.9,1-2.4
			c1-0.9,2.7-0.1,2.8,1.3c0.1,1.3,0.9,1.9,1.8,1.9c2.6,0.1,5.3,0.2,7.9-0.1c3.8-0.5,7.6-1.2,11.3,0.2c0.5,0.2,1.1,0.8,1.1,1.2
			C99.3,16.6,99.2,20.9,99.2,25.6z"/>
		<path class="st3" d="M147.5,142.5c-4.8,0-9.4,0-14.1,0c-2.8,0-5.7-0.1-8.5,0c-1.3,0-2.2-0.3-3-1.2c-3.2-3.3-6.4-6.5-9.7-9.7
			c-0.7-0.7-1.6-1.1-2.7-1.8c0-16.9,0-48.3,0-65.8c12.7,0,25.4,0,38.1,0C147.5,85.5,147.5,120.8,147.5,142.5z M125.3,86
			c0-4,0-7.9,0-11.9c-2.7,0-5.3,0-7.9,0c0,4,0,7.9,0,11.9C120.1,86,122.7,86,125.3,86z M125.4,94.3c-2.8,0-5.4,0-7.9,0
			c0,4,0,7.9,0,11.8c2.7,0,5.3,0,7.9,0C125.4,102.1,125.4,98.2,125.4,94.3z M139.4,86c0-4.1,0-8,0-11.9c-2.7,0-5.2,0-7.8,0
			c0,4,0,7.9,0,11.9C134.2,86,136.7,86,139.4,86z M139.4,106.1c0-4.1,0-7.9,0-11.9c-2.7,0-5.2,0-7.8,0c0,4,0,7.9,0,11.9
			C134.2,106.1,136.7,106.1,139.4,106.1z M125.4,114.4c-2.8,0-5.4,0-7.9,0c0,4,0,7.9,0,11.8c2.7,0,5.3,0,7.9,0
			C125.4,122.2,125.4,118.3,125.4,114.4z M139.4,126.2c0-4.1,0-7.9,0-11.9c-2.7,0-5.2,0-7.8,0c0,4,0,7.9,0,11.9
			C134.2,126.2,136.7,126.2,139.4,126.2z"/>
		<path class="st3" d="M32.8,142.3c2.6-2.6,5-5.1,7.5-7.4c0.4-0.3,1-0.5,1.5-0.5c22.1,0,44.2,0,66.4,0c0.5,0,1.2,0.2,1.5,0.5
			c2.5,2.4,4.9,4.8,7.5,7.4C89,142.3,61.1,142.3,32.8,142.3z"/>
	</g>
</g>
</svg>
